<svg width="30" height="30" viewBox="0 0 30 30" fill="none" xmlns="http://www.w3.org/2000/svg">
<path fill-rule="evenodd" clip-rule="evenodd" d="M15 27.4468C21.8742 27.4468 27.4468 21.8742 27.4468 15C27.4468 8.12582 21.8742 2.55319 15 2.55319C8.12582 2.55319 2.55319 8.12582 2.55319 15C2.55319 21.8742 8.12582 27.4468 15 27.4468ZM15 30C23.2843 30 30 23.2843 30 15C30 6.71573 23.2843 0 15 0C6.71573 0 0 6.71573 0 15C0 23.2843 6.71573 30 15 30Z" fill="#5C7CFA"/>
<path d="M13.3893 11.5355H16.5989V24.2553H13.3893V11.5355ZM13.3656 9.45105V6.31254H16.6107V9.45105H13.3656Z" fill="#5C7CFA"/>
</svg>
